<svg width="23" height="22" viewBox="0 0 23 22" fill="none" xmlns="http://www.w3.org/2000/svg">
<path d="M22.4783 20.4478L16.9397 14.9807C18.449 13.1586 19.1911 10.8335 19.0125 8.48647C18.8338 6.13941 17.7481 3.94992 15.9799 2.37087C14.2117 0.791825 11.8963 -0.0559616 9.51259 0.00286919C7.12889 0.0617 4.85929 1.02265 3.17324 2.68695C1.48719 4.35124 0.513678 6.59156 0.454079 8.9445C0.394479 11.2974 1.25335 13.583 2.85303 15.3284C4.45272 17.0738 6.67083 18.1455 9.04857 18.3218C11.4263 18.4982 13.7818 17.7656 15.6277 16.2758L21.1663 21.7429C21.3413 21.9097 21.5756 22.0021 21.8189 22C22.0622 21.9979 22.2949 21.9016 22.467 21.7317C22.639 21.5619 22.7366 21.3322 22.7387 21.092C22.7408 20.8519 22.6473 20.6205 22.4783 20.4478ZM9.75974 16.5158C8.29159 16.5158 6.85641 16.086 5.63569 15.2809C4.41497 14.4758 3.46353 13.3314 2.90169 11.9925C2.33986 10.6536 2.19286 9.18033 2.47928 7.75897C2.7657 6.33761 3.47268 5.03201 4.51082 4.00727C5.54896 2.98252 6.87163 2.28466 8.31157 2.00194C9.7515 1.71921 11.244 1.86432 12.6004 2.4189C13.9568 2.97349 15.1162 3.91265 15.9318 5.11762C16.7475 6.32259 17.1828 7.73925 17.1828 9.18846C17.1806 11.1311 16.3978 12.9936 15.0062 14.3672C13.6146 15.7409 11.7278 16.5136 9.75974 16.5158Z" fill="#EC762A"/>
</svg>
